<svg xmlns="http://www.w3.org/2000/svg" viewBox="0 0 122 122"><defs><style>.cls-1{fill:#ffc000;}.cls-2{fill:#fff;}</style></defs><g id="レイヤー_2" data-name="レイヤー 2"><g id="レイヤー_1-2" data-name="レイヤー 1"><rect class="cls-1" width="122" height="122" rx="24"/><path class="cls-2" d="M60.64,33.35,37.8,11.26A9.32,9.32,0,0,0,22,18V74.35A14,14,0,0,0,26.26,84.4l27.9,27a9.33,9.33,0,0,0,13,0L95,84.4a14,14,0,0,0,4.26-10.05V18a9.32,9.32,0,0,0-15.8-6.7ZM86.13,72.72a4.64,4.64,0,0,1-1.43,3.35L60.64,99.35V51.65l4.57-4.43,17-16.4a2.33,2.33,0,0,1,3.95,1.67Z"/></g></g></svg>