<svg xmlns="http://www.w3.org/2000/svg" viewBox="0 0 122 122"><defs><style>.cls-1{fill:#ffc000;}.cls-2{fill:#fff;}</style></defs><g id="レイヤー_2" data-name="レイヤー 2"><g id="レイヤー_1-2" data-name="レイヤー 1"><rect class="cls-1" width="122" height="122" rx="24"/><path class="cls-2" d="M110,51.4,66.45,79.84a9.08,9.08,0,0,1-9.15,0L13.76,51.4c-3.26-2.13-3.26-5.58,0-7.71L57.33,15.23a9,9,0,0,1,9.09,0L110,43.69C113.26,45.82,113.26,49.27,110,51.4Zm.12,7.49L110,59,66.45,87.42a9.08,9.08,0,0,1-9.15,0L13.76,59l-.12-.08c-3.13,2.13-3.1,5.52.12,7.62L57.3,95a9.08,9.08,0,0,0,9.15,0L110,66.51C113.21,64.41,113.25,61,110.12,58.89Zm0,15-.12.09L66.45,102.38a9.08,9.08,0,0,1-9.15,0L13.76,73.94l-.12-.09c-3.13,2.14-3.1,5.53.12,7.63L57.3,109.92a9.08,9.08,0,0,0,9.15,0L110,81.48C113.21,79.38,113.25,76,110.12,73.85Z"/></g></g></svg>