<svg xmlns="http://www.w3.org/2000/svg" viewBox="0 0 122 122"><defs><style>.cls-1{fill:#ffc000;}.cls-2{fill:#fff;}</style></defs><g id="レイヤー_2" data-name="レイヤー 2"><g id="レイヤー_1-2" data-name="レイヤー 1"><rect class="cls-1" width="122" height="122" rx="24"/><path class="cls-2" d="M109.65,87.86,69.75,18.74a10.1,10.1,0,0,0-17.49,0L12.36,87.86A10.1,10.1,0,0,0,21.1,103h79.81a10.1,10.1,0,0,0,8.74-15.14ZM61,91.63a6.25,6.25,0,1,1,6.24-6.25A6.25,6.25,0,0,1,61,91.63Zm3.85-20a3.86,3.86,0,0,1-7.71,0l-2.4-28.26a6.25,6.25,0,1,1,12.5,0Z"/></g></g></svg>