<svg xmlns="http://www.w3.org/2000/svg" viewBox="0 0 134.24 133.83"><defs><style>.cls-1{fill:#ffc000;}</style></defs><g id="レイヤー_2" data-name="レイヤー 2"><g id="レイヤー_1-2" data-name="レイヤー 1"><path class="cls-1" d="M66.83,133.83h0c-11.4,0-22.8-2.48-32.71-8.43C7.35,110-5,80.3,1.9,50.56A56.6,56.6,0,0,1,9.33,32.71C22.22,11.9,43.53,0,67.33,0h0A65.67,65.67,0,0,1,102,9.91a3.06,3.06,0,0,1,1,3.47l-5.45,8.43c-.49,1-2,1.49-3.47.49a50.74,50.74,0,0,0-26.76-7.43h0a47.49,47.49,0,0,0-24.79,6.44c-17.35,9.92-27.26,27.26-27.26,45.6,0,18.84,9.91,36.19,27.26,46.1a48.75,48.75,0,0,0,24.79,6.44h0a52,52,0,0,0,52-52,54.15,54.15,0,0,0-1.49-12.89,2.41,2.41,0,0,1,1.49-3l9.42-3c1.48-.49,3,.5,3,1.49a66.52,66.52,0,0,1,2.48,17.35C133.74,103.59,103.51,133.83,66.83,133.83Z"/><path class="cls-1" d="M61.87,90.21,37.09,65.43a2.4,2.4,0,0,1,0-3.47L44,55a2.4,2.4,0,0,1,3.47,0L61.87,69.39a2.4,2.4,0,0,0,3.47,0L115.9,18.84a2.38,2.38,0,0,1,3.47,0l6.94,6.93a2.4,2.4,0,0,1,0,3.47l-61,61A2.4,2.4,0,0,1,61.87,90.21Z"/></g></g></svg>